<svg xmlns="http://www.w3.org/2000/svg" xmlns:xlink="http://www.w3.org/1999/xlink" id="Layer_2" data-name="Layer 2" viewBox="0 0 683.59 230.39"><defs><style> .cls-1 { fill: url(#linear-gradient); } .cls-1, .cls-2, .cls-3, .cls-4, .cls-5, .cls-6, .cls-7 { stroke-width: 0px; } .cls-2 { fill: #d2aa68; } .cls-3 { fill: url(#linear-gradient-4); } .cls-4 { fill: url(#linear-gradient-2); } .cls-5 { fill: url(#linear-gradient-3); } .cls-6 { fill: url(#linear-gradient-5); } .cls-7 { fill: url(#linear-gradient-6); } </style><linearGradient id="linear-gradient" x1="-30.06" y1="-68.41" x2="448.91" y2="245.55" gradientUnits="userSpaceOnUse"><stop offset="0" stop-color="#c9a861"></stop><stop offset="0" stop-color="#ae782b"></stop><stop offset=".23" stop-color="#fede9f"></stop><stop offset=".41" stop-color="#d2aa68"></stop><stop offset=".59" stop-color="#9b7236"></stop><stop offset=".77" stop-color="#9b6f29"></stop><stop offset="1" stop-color="#bf842f"></stop></linearGradient><linearGradient id="linear-gradient-2" x1="-92.4" y1="26.69" x2="386.58" y2="340.64" xlink:href="#linear-gradient"></linearGradient><linearGradient id="linear-gradient-3" x1="-122.11" y1="72.02" x2="356.87" y2="385.98" xlink:href="#linear-gradient"></linearGradient><linearGradient id="linear-gradient-4" x1="3.68" y1="-123.76" x2="843.4" y2="426.66" xlink:href="#linear-gradient"></linearGradient><linearGradient id="linear-gradient-5" x1="-38.06" y1="-60.08" x2="801.66" y2="490.33" xlink:href="#linear-gradient"></linearGradient><linearGradient id="linear-gradient-6" x1="36.96" y1="-174.53" x2="876.68" y2="375.88" xlink:href="#linear-gradient"></linearGradient></defs><g id="Layer_1-2" data-name="Layer 1"><g><path class="cls-1" d="M216.56,36.59c2.62-2.02,11.04-9.01,16.73-13.74l-18.86.04c-2.82-.05-4.51-1.29-5.35-3.91l-6.96-18.98-6.96,18.98c-.84,2.62-2.53,3.87-5.31,3.91l-18.9-.04c5.69,4.73,14.1,11.72,16.73,13.74,2.17,1.69,2.69,3.65,1.67,6.18l-5.72,15.26c.35-.22.7-.45,1.04-.67l4.32-2.76c3.36-2.17,9.97-6.45,10.45-6.76.84-.58,1.66-.9,2.51-.97l.18-.02.18.02c.86.07,1.69.39,2.53.97.47.31,7.08,4.59,10.45,6.76,1.68,1.07,3.53,2.17,5.33,3.24.2.12.4.24.6.35l-6.17-15.55c-1.06-2.59-.6-4.41,1.54-6.06ZM217.56,60.81c-1.53-.91-3.07-1.83-4.51-2.75-3.51-2.26-10.5-6.79-10.5-6.79l-.06-.04c-.11-.08-.25-.17-.38-.22-.1.05-.24.12-.38.22l-.06.04s-6.99,4.53-10.49,6.79l-4.33,2.76c-2.03,1.29-4.07,2.6-6.14,3.92l-5.1,3.26,4.03-11.06,5.89-15.71q.35-.85-.37-1.41c-2.99-2.31-13.25-10.85-18.77-15.43l-6.82-5.67,23,.05c-.21-.08-.41-.16-.6-.24-16.91-7.2-33.75-9.32-51.6-6.38-16.08,2.65-31.94,6.35-47.89,9.56-15.56,3.14-31.21,5.42-47.2,4.28-11.56-.84-21.34-2.82-31.73-8.08-.58-.29-2.62-1.25-3.2-1.29-.2-.02-.38.14-.36.34.23,2.11.68,2.9,1.17,4.26,6.54,18.03,19.64,29.67,36.7,37.28,9.66,4.32,19.92,6.41,30.45,7.25,10.13.81,20.24.54,30.35-.41,6.67-.64,13.31-1.72,20.03-1.4,6.32.29,12.45,1.32,17.7,5.26,4.61,3.47,6.05,7.87,4.19,13.37-2.51,7.37-6.81,13.55-12.75,18.56-1.21,1.02-1.21,1.47.13,2.33,3.37,2.2,6.65,4.53,9.95,6.84,12.98,9.11,25.81,18.45,39.6,26.39,2.56,1.47,4.71,1.32,7.08-.05,3.37-1.95,6.5-4.22,9.31-6.9,9.68-9.2,16.02-20.45,20.41-32.91,3.85-10.89,5.4-22.05,3.61-33.58-.1-.64-.23-1.56-.35-2.46Z"></path><path class="cls-4" d="M36.95,84.21c10.15.82,20.02,2.82,29.75,5.5,33.03,9.11,62.25,25.16,87.65,48.17,25.01,22.68,43.54,49.97,57.28,80.65,1.49,3.32,2.81,6.72,4.29,10.05.55,1.25.62,1.8-1.07,1.79-25.87-.04-51.75-.03-77.62-.02-1,0-1.63-.07-1.68-1.38-1.23-27.26-10.06-52.12-24.33-75.14-16.12-26.01-37.93-46.32-63.6-62.69-3.01-1.92-5.3-3.38-8.32-5.27-.54-.33-2.34-1.67-2.34-1.67h0Z"></path><path class="cls-5" d="M6.72,230.34c9.58-8.17,12.55-19.26,15.12-30.45,2.31-10.1,3.23-20.4,3.76-30.75.54-10.29.51-20.57.16-30.84-.45-13.09-1.33-26.15-2.91-39.17-.23-1.88.25-2.1,1.95-1.49,15.92,5.72,29.33,15.12,40.56,27.67,15.29,17.09,23.74,37.39,27.69,59.76,2.02,11.48,2.68,23.06,2.57,34.69-.03,2.83-.32,5.65-.34,8.47,0,1.63-.54,2.17-2.22,2.15-7.08-.09-14.17-.04-21.25-.04H6.72Z"></path></g><g><g><g><path class="cls-2" d="M291.62,19.43c6.72,0,11.78,2.9,13.63,6.97.99,2.03,1.42,4.13,1.42,6.41,0,5.67-3.08,9.12-6.97,10.85,3.14.99,4.38,3.02,5.61,7.4l3.08,11.53h-11.1l-2.65-9.37c-1.05-4.32-2.71-5.36-5.61-5.36h-3.58v14.74h-10.85V19.43h17.02ZM285.45,38.6h4.13c4.44,0,5.98-1.6,5.98-4.68,0-3.33-1.48-4.93-5.92-4.93h-4.19v9.62Z"></path><path class="cls-2" d="M343.47,22.38c3.14,2.4,5.24,5.3,6.23,8.88,1.11,3.27,1.66,6.54,1.66,9.74,0,6.17-1.66,11.78-4.93,15.84-3.27,4.13-8.14,6.66-14.61,6.66s-11.22-2.53-14.55-6.66c-3.27-4.07-4.87-9.68-4.87-15.84,0-9.37,3.95-17.08,10.05-20.1,3.21-1.48,6.29-2.28,9.37-2.28,4.62,0,8.45,1.23,11.65,3.76ZM326.51,30.77c-1.29,1.79-1.91,3.64-2.34,5.42-.37,1.85-.43,3.52-.43,4.81,0,3.64.74,6.84,2.1,9.12,1.29,2.22,3.33,3.58,5.98,3.58,3.02.25,5.12-1.67,6.41-4.25,1.29-2.53,1.79-5.8,1.73-8.45.06-4.93-1.29-8.14-3.02-10.17-1.73-1.97-3.82-2.78-5.12-2.47-2.28-.06-4.01.74-5.3,2.4Z"></path><path class="cls-2" d="M377.43,29.41v33.17h-11.1V29.41h-11.47v-9.99h33.91v9.99h-11.34Z"></path><path class="cls-2" d="M420.09,62.58l-2.65-7.34h-13.69l-2.65,7.34h-11.47l15.6-43.16h10.91l15.54,43.16h-11.59ZM414.98,46.31l-4.38-14.55-4.32,14.55h8.69Z"></path><path class="cls-2" d="M461.4,62.58l-14.43-24.29v24.29h-10.79V19.43h11.1l13.32,22.75v-22.75h10.79v43.16h-9.99Z"></path><path class="cls-2" d="M506.28,62.58l-2.65-7.34h-13.69l-2.65,7.34h-11.47l15.6-43.16h10.91l15.54,43.16h-11.59ZM501.16,46.31l-4.38-14.55-4.32,14.55h8.69Z"></path><path class="cls-2" d="M537.78,50c.99.93,5.3,3.15,7.95,3.7,1.36.37,2.53.49,3.58.49,3.7,0,5.49-1.23,5.49-3.33,0-.99-.25-1.79-.8-2.22-.8-.86-3.27-1.97-7.28-3.33-3.95-1.23-7.15-2.59-9.43-4.69-2.34-2.1-3.58-4.87-3.58-8.94,0-2.9.8-5.36,2.34-7.4,1.73-2.34,4.07-3.7,6.6-4.56,2.53-.8,4.99-1.11,6.97-1.11,4.19,0,7.46.86,9.99,2.1,2.53,1.23,4.38,2.84,5.67,4.19l-5.86,7.34c-2.59-2.9-5.86-4.62-9.49-4.62s-5.3,1.29-5.3,3.14c0,2.03,1.73,2.84,3.88,3.7,1.11.43,2.47.93,4.19,1.48,5.49,1.48,8.69,3.7,10.48,6.23,1.79,2.59,2.34,5.43,2.4,8.01,0,6.47-4.07,10.73-9.25,12.21-2.59.68-4.93,1.11-6.9,1.11-7.58,0-12.45-2.1-16.09-4.5l4.44-9Z"></path><path class="cls-2" d="M591.05,29.41v33.17h-11.1V29.41h-11.47v-9.99h33.91v9.99h-11.34Z"></path><path class="cls-2" d="M633.71,62.58l-2.65-7.34h-13.69l-2.65,7.34h-11.47l15.6-43.16h10.91l15.54,43.16h-11.59ZM628.59,46.31l-4.38-14.55-4.32,14.55h8.69Z"></path><path class="cls-2" d="M666.82,19.43c6.72,0,11.78,2.9,13.63,6.97.99,2.03,1.42,4.13,1.42,6.41,0,5.67-3.08,9.12-6.97,10.85,3.14.99,4.38,3.02,5.61,7.4l3.08,11.53h-11.1l-2.65-9.37c-1.05-4.32-2.71-5.36-5.61-5.36h-3.58v14.74h-10.85V19.43h17.02ZM660.65,38.6h4.13c4.44,0,5.98-1.6,5.98-4.68,0-3.33-1.48-4.93-5.92-4.93h-4.19v9.62Z"></path></g><g><path class="cls-2" d="M503.44,116.71l-2.65-7.34h-13.69l-2.65,7.34h-11.47l15.6-43.16h10.91l15.54,43.16h-11.59ZM498.33,100.44l-4.38-14.55-4.32,14.55h8.69Z"></path><g><path class="cls-2" d="M320.56,73.55c6.72,0,11.78,2.9,13.63,6.97.99,2.03,1.42,4.13,1.42,6.41,0,5.67-3.08,9.12-6.97,10.85,3.14.99,4.38,3.02,5.61,7.4l3.08,11.53h-11.1l-2.65-9.37c-1.05-4.32-2.71-5.36-5.61-5.36h-3.58v14.74h-10.85v-43.16h17.02ZM314.4,92.73h4.13c4.44,0,5.98-1.6,5.98-4.68,0-3.33-1.48-4.93-5.92-4.93h-4.19v9.62Z"></path><path class="cls-2" d="M445.22,83.54v33.17h-11.1v-33.17h-11.47v-9.99h33.91v9.99h-11.34Z"></path><path class="cls-2" d="M408.38,116.71l-14.43-24.29v24.29h-10.79v-43.16h11.1l13.32,22.75v-22.75h10.79v43.16h-9.99Z"></path><path class="cls-2" d="M378.14,107.28v9.43h-34.65v-43.16h33.85v9.43h-21.76v7.27h19.18v9.13h-19.18v7.89h22.57Z"></path></g><g><path class="cls-2" d="M604.77,116.71l-2.65-7.34h-13.69l-2.65,7.34h-11.47l15.6-43.16h10.91l15.54,43.16h-11.59ZM599.65,100.44l-4.38-14.55-4.32,14.55h8.69Z"></path><path class="cls-2" d="M637.87,73.56c6.72,0,11.78,2.9,13.63,6.97.99,2.03,1.42,4.13,1.42,6.41,0,5.67-3.08,9.12-6.97,10.85,3.14.99,4.38,3.02,5.61,7.4l3.08,11.53h-11.1l-2.65-9.37c-1.05-4.32-2.71-5.36-5.61-5.36h-3.58v14.74h-10.85v-43.16h17.02ZM631.71,92.73h4.13c4.44,0,5.98-1.6,5.98-4.68,0-3.33-1.48-4.93-5.92-4.93h-4.19v9.62Z"></path><path class="cls-2" d="M541,113.81c-3.45-1.83-6.15-4.38-8.12-7.65-1.97-3.27-2.95-6.97-2.95-11.1s.98-7.83,2.95-11.1c1.97-3.27,4.67-5.82,8.12-7.65,3.44-1.83,7.33-2.75,11.66-2.75,3.78,0,7.19.67,10.22,2.01s5.55,3.27,7.56,5.79l-7.44,6.73c-2.68-3.23-5.93-4.84-9.74-4.84-2.24,0-4.24.49-5.99,1.48-1.75.99-3.11,2.37-4.08,4.16-.96,1.79-1.45,3.85-1.45,6.17s.48,4.38,1.45,6.17c.96,1.79,2.32,3.18,4.08,4.16s3.75,1.48,5.99,1.48c3.82,0,7.07-1.61,9.74-4.84l7.44,6.73c-2.01,2.52-4.53,4.45-7.56,5.79s-6.44,2.01-10.22,2.01c-4.33,0-8.22-.92-11.66-2.75Z"></path></g></g></g><g><path class="cls-3" d="M405.32,179.62s-84.26-5.66-130.72,32.14c0,0,25.98-31.14,92.92-37.8,28.98-11.49,58.45-25.48,92.59-29.47,34.14-4,92.75,2.33,127.72,12.49,0,0-61.28,17.98-94.09,16.49,24.04-1.34,54.45-15.15,54.45-15.15-39.63-10.49-66.44-11.49-95.09-6.16-28.64,5.33-73.94,22.31-73.94,22.31,5.83,2,26.14,5.16,26.14,5.16ZM669.1,170.63s11.32-1.83,14.49-6.66c-14.32,3.83-64.94.83-80.64-3.5-21.69,10.99-77.41,19.55-121.85,23.65,106.74-6.6,179.05-37.97,200.6,24.65,3.93-22.31-12.59-38.13-12.59-38.13Z"></path><path class="cls-6" d="M329.78,205.6c7.15-9.58,20.4-16.02,35.58-16.02s28.63,6.53,35.73,16.23h-9.61c-6.65-7.85-18.02-13.02-30.94-13.02s-24.1,5.08-30.77,12.82Z"></path><path class="cls-7" d="M569.16,200.64c7.76-9.58,22.15-16.02,38.64-16.02s31.08,6.53,38.8,16.23h-10.44c-7.22-7.85-19.56-13.02-33.59-13.02s-26.17,5.08-33.41,12.82Z"></path></g></g></g></svg>